<svg xmlns="http://www.w3.org/2000/svg" viewBox="0 0 1440 430" role="img" aria-labelledby="title desc">
  <title id="title">FinSight 公司研究智能体系统图</title>
  <desc id="desc">参考金融科技系统架构海报设计的 FinSight 主视觉，展示年报输入、解析、数据库、知识库、智能分析 Agent 和报告输出。</desc>
  <defs>
    <linearGradient id="paper" x1="0" y1="0" x2="1" y2="1">
      <stop offset="0" stop-color="#fbfdff"/>
      <stop offset=".48" stop-color="#eff8ff"/>
      <stop offset="1" stop-color="#f8fffb"/>
    </linearGradient>
    <radialGradient id="blueAura" cx=".48" cy=".45" r=".62">
      <stop offset="0" stop-color="#58b8ff" stop-opacity=".36"/>
      <stop offset=".5" stop-color="#58b8ff" stop-opacity=".12"/>
      <stop offset="1" stop-color="#58b8ff" stop-opacity="0"/>
    </radialGradient>
    <radialGradient id="goldAura" cx=".38" cy=".64" r=".38">
      <stop offset="0" stop-color="#f8d77a" stop-opacity=".28"/>
      <stop offset="1" stop-color="#f8d77a" stop-opacity="0"/>
    </radialGradient>
    <linearGradient id="brand" x1="0" y1="0" x2="1" y2="1">
      <stop offset="0" stop-color="#47bfff"/>
      <stop offset=".45" stop-color="#863bff"/>
      <stop offset="1" stop-color="#5b21b6"/>
    </linearGradient>
    <linearGradient id="blue" x1="0" y1="0" x2="1" y2="1">
      <stop offset="0" stop-color="#73c6ff"/>
      <stop offset=".58" stop-color="#0071e3"/>
      <stop offset="1" stop-color="#005bb5"/>
    </linearGradient>
    <linearGradient id="mint" x1="0" y1="0" x2="1" y2="1">
      <stop offset="0" stop-color="#99f6e4"/>
      <stop offset="1" stop-color="#14b8a6"/>
    </linearGradient>
    <linearGradient id="gold" x1="0" y1="0" x2="1" y2="1">
      <stop offset="0" stop-color="#fde68a"/>
      <stop offset=".68" stop-color="#f59e0b"/>
      <stop offset="1" stop-color="#d97706"/>
    </linearGradient>
    <linearGradient id="glass" x1="0" y1="0" x2="1" y2="1">
      <stop offset="0" stop-color="#ffffff" stop-opacity=".96"/>
      <stop offset=".55" stop-color="#f2f8ff" stop-opacity=".88"/>
      <stop offset="1" stop-color="#dcefff" stop-opacity=".7"/>
    </linearGradient>
    <linearGradient id="reportWindow" x1="0" y1="0" x2="1" y2="1">
      <stop offset="0" stop-color="#ffffff"/>
      <stop offset=".72" stop-color="#f4f9ff"/>
      <stop offset="1" stop-color="#edf7ff"/>
    </linearGradient>
    <pattern id="grid" width="34" height="34" patternUnits="userSpaceOnUse">
      <path d="M34 0H0v34" fill="none" stroke="#0071e3" stroke-opacity=".055" stroke-width="1"/>
    </pattern>
    <filter id="softShadow" x="-25%" y="-45%" width="150%" height="190%">
      <feDropShadow dx="0" dy="18" stdDeviation="18" flood-color="#0f172a" flood-opacity=".14"/>
    </filter>
    <filter id="deepShadow" x="-25%" y="-45%" width="150%" height="190%">
      <feDropShadow dx="0" dy="26" stdDeviation="24" flood-color="#0f172a" flood-opacity=".2"/>
    </filter>
    <filter id="glow" x="-60%" y="-80%" width="220%" height="260%">
      <feDropShadow dx="0" dy="0" stdDeviation="9" flood-color="#42a5ff" flood-opacity=".45"/>
    </filter>
    <filter id="brandGlow" x="-55%" y="-80%" width="210%" height="260%">
      <feDropShadow dx="0" dy="0" stdDeviation="12" flood-color="#863bff" flood-opacity=".28"/>
      <feDropShadow dx="0" dy="12" stdDeviation="18" flood-color="#0f172a" flood-opacity=".12"/>
    </filter>
    <clipPath id="reportClip">
      <rect x="1082" y="72" width="238" height="260" rx="20"/>
    </clipPath>
  </defs>

  <rect width="1440" height="430" rx="34" fill="url(#paper)"/>
  <rect width="1440" height="430" rx="34" fill="url(#grid)"/>
  <ellipse cx="720" cy="190" rx="650" ry="250" fill="url(#blueAura)"/>
  <ellipse cx="470" cy="300" rx="360" ry="150" fill="url(#goldAura)"/>

  <g opacity=".38">
    <path d="M34 370c78-104 166-136 250-112 98 28 132 92 248 48 108-42 144-156 280-112 122 40 156 140 284 94 90-32 136-94 234-60" fill="none" stroke="#0071e3" stroke-opacity=".18" stroke-width="2"/>
    <path d="M48 394c86-60 176-66 252-34 110 48 180 34 262-28 112-86 192-66 300-8 134 72 244 38 356-24" fill="none" stroke="#14b8a6" stroke-opacity=".16" stroke-width="2"/>
  </g>

  <g opacity=".45">
    <path d="M34 334h42v-50h34v-76h38v126h44v-94h42v94h42v-132h50v132h44v-86h42v86h54v-116h44v116h46" fill="none" stroke="#91a8c3" stroke-width="2"/>
    <path d="M44 334h46v-22h34v22h36v-58h38v58h34v-36h38v36h44v-74h44v74h48v-42h42v42h48" fill="#dbeafe" opacity=".5"/>
    <path d="M78 258a160 160 0 0 1 388 76" fill="none" stroke="#91a8c3" stroke-opacity=".5" stroke-width="1.5"/>
    <path d="M116 316c80-42 172-42 270 0M150 284c58-28 126-28 206 0" fill="none" stroke="#91a8c3" stroke-opacity=".45" stroke-width="1"/>
    <circle cx="206" cy="282" r="5" fill="#f59e0b" opacity=".72"/>
    <circle cx="332" cy="308" r="4" fill="#0071e3" opacity=".7"/>
  </g>

  <g filter="url(#brandGlow)">
    <g transform="translate(42 128) scale(1.25)">
      <path fill="url(#brand)" d="M25.946 44.938c-.664.845-2.021.375-2.021-.698V33.937a2.26 2.26 0 0 0-2.262-2.262H10.287c-.92 0-1.456-1.04-.92-1.788l7.48-10.471c1.07-1.497 0-3.578-1.842-3.578H1.237c-.92 0-1.456-1.04-.92-1.788L10.013.474c.214-.297.556-.474.92-.474h28.894c.92 0 1.456 1.04.92 1.788l-7.48 10.471c-1.07 1.498 0 3.579 1.842 3.579h11.377c.943 0 1.473 1.088.89 1.83L25.947 44.94z"/>
    </g>
    <text x="108" y="188" fill="#0f172a" font-family="Inter, -apple-system, BlinkMacSystemFont, 'Segoe UI', sans-serif" font-size="76" font-weight="800" letter-spacing="-2">FinSight</text>
  </g>

  <g fill="none" stroke-linecap="round" stroke-linejoin="round">
    <path d="M428 112c64 8 92 50 126 96" stroke="#7dd3fc" stroke-opacity=".72" stroke-width="6" filter="url(#glow)"/>
    <path d="M560 238c44-38 82-44 132-26" stroke="#42a5ff" stroke-opacity=".66" stroke-width="6" filter="url(#glow)"/>
    <path d="M754 194c64-32 118-10 168 42" stroke="#14b8a6" stroke-opacity=".62" stroke-width="6"/>
    <path d="M940 196c50-12 76-44 132-32" stroke="#f59e0b" stroke-opacity=".58" stroke-width="6"/>
    <path d="M924 276c54 10 88 42 144 28" stroke="#0071e3" stroke-opacity=".55" stroke-width="5"/>
  </g>

  <g filter="url(#softShadow)">
    <g transform="translate(420 66) rotate(-12)">
      <rect x="0" y="0" width="54" height="70" rx="9" fill="#ffffff" stroke="#c3d7ef"/>
      <path d="M12 16h28M12 30h22M12 44h30" stroke="#8aa2bf" stroke-width="4" stroke-linecap="round" opacity=".45"/>
      <rect x="9" y="51" width="36" height="13" rx="4" fill="#dc2626"/>
      <text x="18" y="61" fill="#fff" font-family="Inter, sans-serif" font-size="9" font-weight="800">PDF</text>
    </g>
    <g transform="translate(482 48) rotate(10)">
      <rect x="0" y="0" width="54" height="70" rx="9" fill="#ffffff" stroke="#c3d7ef"/>
      <path d="M12 16h28M12 30h22M12 44h30" stroke="#8aa2bf" stroke-width="4" stroke-linecap="round" opacity=".45"/>
      <rect x="9" y="51" width="36" height="13" rx="4" fill="#dc2626"/>
      <text x="18" y="61" fill="#fff" font-family="Inter, sans-serif" font-size="9" font-weight="800">PDF</text>
    </g>
    <g transform="translate(520 96) rotate(-4)">
      <rect x="0" y="0" width="54" height="70" rx="9" fill="#ffffff" stroke="#c3d7ef"/>
      <path d="M12 16h28M12 30h22M12 44h30" stroke="#8aa2bf" stroke-width="4" stroke-linecap="round" opacity=".45"/>
      <rect x="9" y="51" width="36" height="13" rx="4" fill="#dc2626"/>
      <text x="18" y="61" fill="#fff" font-family="Inter, sans-serif" font-size="9" font-weight="800">PDF</text>
    </g>
    <text x="430" y="44" fill="#0f172a" font-family="Inter, sans-serif" font-size="17" font-weight="800">A-Share Annual Reports</text>
  </g>

  <g filter="url(#softShadow)">
    <rect x="470" y="264" width="140" height="82" rx="20" fill="url(#glass)" stroke="#c0d8f2"/>
    <rect x="494" y="286" width="64" height="36" rx="8" fill="#ffffff" stroke="#d6e4f4"/>
    <path d="M506 310h38M506 298h24" stroke="#0071e3" stroke-width="5" stroke-linecap="round" opacity=".38"/>
    <path d="M560 320l28 12M560 290l28-12" stroke="#8aa2bf" stroke-width="3" stroke-linecap="round" opacity=".42"/>
    <text x="454" y="242" fill="#0f172a" font-family="Inter, sans-serif" font-size="16" font-weight="800">A-Share Ingestion</text>
  </g>

  <g filter="url(#deepShadow)">
    <path d="M642 110l78-40 78 40-78 40-78-40Z" fill="#eef7ff" stroke="#c2d7ee"/>
    <path d="M642 110v58l78 42 78-42v-58l-78 40-78-40Z" fill="#dfeeff" stroke="#c2d7ee"/>
    <ellipse cx="720" cy="107" rx="44" ry="20" fill="#f5d77b" stroke="#d5b65a"/>
    <path d="M676 107v42c0 11 20 20 44 20s44-9 44-20v-42" fill="#d7bd67" opacity=".95"/>
    <ellipse cx="720" cy="149" rx="44" ry="20" fill="#e6cf78" stroke="#c5a956"/>
    <path d="M692 113h56M690 134h60M692 155h56" stroke="#fff8d7" stroke-width="3" stroke-linecap="round" opacity=".7"/>
    <text x="667" y="48" fill="#0f172a" font-family="Inter, sans-serif" font-size="18" font-weight="800">PostgreSQL</text>
    <text x="650" y="70" fill="#475569" font-family="Inter, sans-serif" font-size="13" font-weight="650">Structured Financial Data</text>
  </g>

  <g filter="url(#deepShadow)">
    <path d="M640 282l72-36 72 36-72 36-72-36Z" fill="#eef7ff" stroke="#c2d7ee"/>
    <path d="M640 282v52l72 38 72-38v-52l-72 36-72-36Z" fill="#dfeeff" stroke="#c2d7ee"/>
    <ellipse cx="712" cy="280" rx="38" ry="17" fill="#f5d77b" stroke="#d5b65a"/>
    <path d="M674 280v34c0 10 17 17 38 17s38-7 38-17v-34" fill="#d7bd67" opacity=".95"/>
    <ellipse cx="712" cy="314" rx="38" ry="17" fill="#e6cf78" stroke="#c5a956"/>
    <text x="684" y="236" fill="#0f172a" font-family="Inter, sans-serif" font-size="17" font-weight="800">LLM</text>
    <text x="676" y="256" fill="#475569" font-family="Inter, sans-serif" font-size="13" font-weight="650">Qwen</text>
  </g>

  <g filter="url(#softShadow)">
    <path d="M784 232l64-32 64 32-64 32-64-32Z" fill="#eef7ff" stroke="#c2d7ee"/>
    <path d="M784 232v48l64 34 64-34v-48l-64 32-64-32Z" fill="#dfeeff" stroke="#c2d7ee"/>
    <circle cx="848" cy="230" r="24" fill="url(#gold)" opacity=".85"/>
    <path d="M836 230h24M848 218v24M838 220l20 20M858 220l-20 20" stroke="#fff" stroke-width="4" stroke-linecap="round" opacity=".8"/>
    <rect x="766" y="164" width="112" height="42" rx="12" fill="#ffffff" fill-opacity=".78" stroke="#c8daee"/>
    <text x="784" y="183" fill="#0f172a" font-family="Inter, sans-serif" font-size="15" font-weight="800">LLM-wiki</text>
    <text x="786" y="199" fill="#475569" font-family="Inter, sans-serif" font-size="11" font-weight="650">Knowledge Base</text>
  </g>

  <g filter="url(#softShadow)">
    <path d="M846 114l70-35 70 35-70 35-70-35Z" fill="#eef7ff" stroke="#c2d7ee"/>
    <path d="M846 114v52l70 38 70-38v-52l-70 35-70-35Z" fill="#dfeeff" stroke="#c2d7ee"/>
    <circle cx="916" cy="112" r="28" fill="#f8fbff" stroke="#c5d8ef"/>
    <path d="M903 112a13 13 0 1 0 26 0 13 13 0 0 0-26 0Zm13-28v10M916 130v10M888 112h10M934 112h10M895 91l7 7M930 126l7 7M937 91l-7 7M902 126l-7 7" stroke="#7c6a35" stroke-width="4" stroke-linecap="round"/>
    <text x="874" y="58" fill="#0f172a" font-family="Inter, sans-serif" font-size="17" font-weight="800">minerU</text>
    <text x="836" y="78" fill="#475569" font-family="Inter, sans-serif" font-size="13" font-weight="650">Financial Report Parser</text>
  </g>

  <g filter="url(#softShadow)">
    <path d="M950 214l66-34 66 34-66 34-66-34Z" fill="#eef7ff" stroke="#c2d7ee"/>
    <path d="M950 214v54l66 36 66-36v-54l-66 34-66-34Z" fill="#dfeeff" stroke="#c2d7ee"/>
    <circle cx="1016" cy="212" r="29" fill="url(#gold)" opacity=".88"/>
    <path d="M1004 211c0-11 8-20 18-20 9 0 17 8 17 18 0 8-4 14-10 18l-1 9h-20l-1-9c-2-1-3-2-4-4" fill="none" stroke="#fff" stroke-width="5" stroke-linecap="round" stroke-linejoin="round"/>
    <path d="M1018 197v22M1008 208h20" stroke="#fff" stroke-width="4" stroke-linecap="round" opacity=".82"/>
    <rect x="928" y="134" width="128" height="42" rx="12" fill="#ffffff" fill-opacity=".78" stroke="#c8daee"/>
    <text x="944" y="153" fill="#0f172a" font-family="Inter, sans-serif" font-size="14" font-weight="800">Analysis Agent</text>
    <text x="946" y="169" fill="#475569" font-family="Inter, sans-serif" font-size="11" font-weight="650">Review &amp; Compliance</text>
  </g>

  <g filter="url(#deepShadow)">
    <rect x="1082" y="72" width="238" height="260" rx="20" fill="url(#reportWindow)" stroke="#b8cce5"/>
    <rect x="1082" y="72" width="238" height="34" rx="20" fill="#edf4fc"/>
    <circle cx="1294" cy="89" r="4" fill="#cbd5e1"/>
    <circle cx="1278" cy="89" r="4" fill="#cbd5e1"/>
    <circle cx="1262" cy="89" r="4" fill="#cbd5e1"/>
    <g transform="translate(1122 82)">
      <path d="M3 2h10l5 5v13H3Z" fill="#ffffff" stroke="#8fb3d5" stroke-width="1.4"/>
      <path d="M13 2v5h5" fill="none" stroke="#8fb3d5" stroke-width="1.4"/>
      <path d="M7 11h7M7 15h8" stroke="#0071e3" stroke-width="1.6" stroke-linecap="round" opacity=".7"/>
      <text x="25" y="14" fill="#0f172a" font-family="Inter, sans-serif" font-size="14" font-weight="800">FinSight Reports</text>
    </g>
    <text x="1128" y="42" fill="#0f172a" font-family="Inter, sans-serif" font-size="17" font-weight="800">Generated Reports</text>
    <text x="1134" y="64" fill="#475569" font-family="Inter, sans-serif" font-size="12" font-weight="650">Analytical Outputs</text>
    <g clip-path="url(#reportClip)">
      <rect x="1098" y="122" width="204" height="34" rx="9" fill="#f8fbff" stroke="#d6e4f4"/>
      <text x="1110" y="144" fill="#0f172a" font-family="Inter, sans-serif" font-size="12" font-weight="800">Report ID: SH-600104</text>
      <rect x="1098" y="170" width="88" height="78" rx="10" fill="#ffffff" stroke="#d6e4f4"/>
      <path d="M1110 232c14-28 23 8 36-18s20-16 30-30" fill="none" stroke="#0071e3" stroke-width="4" stroke-linecap="round" stroke-linejoin="round"/>
      <path d="M1110 188h46M1110 202h32" stroke="#7f9bb9" stroke-width="4" stroke-linecap="round" opacity=".34"/>
      <rect x="1198" y="170" width="88" height="78" rx="10" fill="#ffffff" stroke="#d6e4f4"/>
      <path d="M1210 228c12-18 21-12 32-28s18-14 32-26" fill="none" stroke="#f59e0b" stroke-width="4" stroke-linecap="round" stroke-linejoin="round"/>
      <path d="M1210 188h46M1210 202h32" stroke="#7f9bb9" stroke-width="4" stroke-linecap="round" opacity=".34"/>
      <rect x="1098" y="260" width="204" height="54" rx="10" fill="#fff7ed" stroke="#fed7aa"/>
      <path d="M1114 278l8 8 17-20M1114 300l8 8 17-20" fill="none" stroke="#16a34a" stroke-width="4" stroke-linecap="round" stroke-linejoin="round"/>
      <path d="M1154 278h112M1154 300h84" stroke="#7f9bb9" stroke-width="4" stroke-linecap="round" opacity=".34"/>
    </g>
  </g>

  <g filter="url(#softShadow)">
    <rect x="810" y="338" width="456" height="58" rx="18" fill="#ffffff" fill-opacity=".72" stroke="#c9dbee"/>
    <circle cx="838" cy="367" r="5" fill="#f59e0b"/>
    <text x="856" y="363" fill="#0f172a" font-family="Inter, sans-serif" font-size="14" font-weight="800">Efficiency</text>
    <text x="856" y="382" fill="#64748b" font-family="Inter, sans-serif" font-size="12" font-weight="650">自动解析、核查、合规和追踪</text>
    <circle cx="1040" cy="367" r="5" fill="#0071e3"/>
    <text x="1058" y="363" fill="#0f172a" font-family="Inter, sans-serif" font-size="14" font-weight="800">Traceability</text>
    <text x="1058" y="382" fill="#64748b" font-family="Inter, sans-serif" font-size="12" font-weight="650">结论可回溯到来源证据</text>
  </g>
</svg>
